<svg width="265" height="230" viewBox="0 0 265 230" fill="none" xmlns="http://www.w3.org/2000/svg">
<path d="M-26.818 11.818L-30 0L-33.182 11.818L-45 15L-33.182 18.182L-30 30L-26.818 18.182L-15 15L-26.818 11.818Z" fill="#E3F0FF"/>
<path d="M-26.818 11.818L-30 0L-33.182 11.818L-45 15L-33.182 18.182L-30 30L-26.818 18.182L-15 15L-26.818 11.818Z" fill="#E3F0FF"/>
<path d="M13.182 11.818L10 0L6.81802 11.818L-5 15L6.81802 18.182L10 30L13.182 18.182L25 15L13.182 11.818Z" fill="#E3F0FF"/>
<path d="M13.182 11.818L10 0L6.81802 11.818L-5 15L6.81802 18.182L10 30L13.182 18.182L25 15L13.182 11.818Z" fill="#E3F0FF"/>
<path d="M50 0L53.182 11.818L65 15L53.182 18.182L50 30L46.818 18.182L35 15L46.818 11.818L50 0Z" fill="#E3F0FF"/>
<path d="M50 0L53.182 11.818L65 15L53.182 18.182L50 30L46.818 18.182L35 15L46.818 11.818L50 0Z" fill="#E3F0FF"/>
<path d="M93.182 11.818L90 0L86.818 11.818L75 15L86.818 18.182L90 30L93.182 18.182L105 15L93.182 11.818Z" fill="#E3F0FF"/>
<path d="M93.182 11.818L90 0L86.818 11.818L75 15L86.818 18.182L90 30L93.182 18.182L105 15L93.182 11.818Z" fill="#E3F0FF"/>
<path d="M130 0L133.182 11.818L145 15L133.182 18.182L130 30L126.818 18.182L115 15L126.818 11.818L130 0Z" fill="#E3F0FF"/>
<path d="M130 0L133.182 11.818L145 15L133.182 18.182L130 30L126.818 18.182L115 15L126.818 11.818L130 0Z" fill="#E3F0FF"/>
<path d="M173.182 11.818L170 0L166.818 11.818L155 15L166.818 18.182L170 30L173.182 18.182L185 15L173.182 11.818Z" fill="#E3F0FF"/>
<path d="M173.182 11.818L170 0L166.818 11.818L155 15L166.818 18.182L170 30L173.182 18.182L185 15L173.182 11.818Z" fill="#E3F0FF"/>
<path d="M210 0L213.182 11.818L225 15L213.182 18.182L210 30L206.818 18.182L195 15L206.818 11.818L210 0Z" fill="#E3F0FF"/>
<path d="M210 0L213.182 11.818L225 15L213.182 18.182L210 30L206.818 18.182L195 15L206.818 11.818L210 0Z" fill="#E3F0FF"/>
<path d="M253.182 11.818L250 0L246.818 11.818L235 15L246.818 18.182L250 30L253.182 18.182L265 15L253.182 11.818Z" fill="#E3F0FF"/>
<path d="M253.182 11.818L250 0L246.818 11.818L235 15L246.818 18.182L250 30L253.182 18.182L265 15L253.182 11.818Z" fill="#E3F0FF"/>
<path d="M-30 40L-26.818 51.818L-15 55L-26.818 58.182L-30 70L-33.182 58.182L-45 55L-33.182 51.818L-30 40Z" fill="#E3F0FF"/>
<path d="M-30 40L-26.818 51.818L-15 55L-26.818 58.182L-30 70L-33.182 58.182L-45 55L-33.182 51.818L-30 40Z" fill="#E3F0FF"/>
<path d="M13.182 51.818L10 40L6.81802 51.818L-5 55L6.81802 58.182L10 70L13.182 58.182L25 55L13.182 51.818Z" fill="#E3F0FF"/>
<path d="M13.182 51.818L10 40L6.81802 51.818L-5 55L6.81802 58.182L10 70L13.182 58.182L25 55L13.182 51.818Z" fill="#E3F0FF"/>
<path d="M50 40L53.182 51.818L65 55L53.182 58.182L50 70L46.818 58.182L35 55L46.818 51.818L50 40Z" fill="#E3F0FF"/>
<path d="M50 40L53.182 51.818L65 55L53.182 58.182L50 70L46.818 58.182L35 55L46.818 51.818L50 40Z" fill="#E3F0FF"/>
<path d="M93.182 51.818L90 40L86.818 51.818L75 55L86.818 58.182L90 70L93.182 58.182L105 55L93.182 51.818Z" fill="#E3F0FF"/>
<path d="M93.182 51.818L90 40L86.818 51.818L75 55L86.818 58.182L90 70L93.182 58.182L105 55L93.182 51.818Z" fill="#E3F0FF"/>
<path d="M130 40L133.182 51.818L145 55L133.182 58.182L130 70L126.818 58.182L115 55L126.818 51.818L130 40Z" fill="#E3F0FF"/>
<path d="M130 40L133.182 51.818L145 55L133.182 58.182L130 70L126.818 58.182L115 55L126.818 51.818L130 40Z" fill="#E3F0FF"/>
<path d="M173.182 51.818L170 40L166.818 51.818L155 55L166.818 58.182L170 70L173.182 58.182L185 55L173.182 51.818Z" fill="#E3F0FF"/>
<path d="M173.182 51.818L170 40L166.818 51.818L155 55L166.818 58.182L170 70L173.182 58.182L185 55L173.182 51.818Z" fill="#E3F0FF"/>
<path d="M210 40L213.182 51.818L225 55L213.182 58.182L210 70L206.818 58.182L195 55L206.818 51.818L210 40Z" fill="#E3F0FF"/>
<path d="M210 40L213.182 51.818L225 55L213.182 58.182L210 70L206.818 58.182L195 55L206.818 51.818L210 40Z" fill="#E3F0FF"/>
<path d="M253.182 51.818L250 40L246.818 51.818L235 55L246.818 58.182L250 70L253.182 58.182L265 55L253.182 51.818Z" fill="#E3F0FF"/>
<path d="M253.182 51.818L250 40L246.818 51.818L235 55L246.818 58.182L250 70L253.182 58.182L265 55L253.182 51.818Z" fill="#E3F0FF"/>
<path d="M-30 80L-26.818 91.818L-15 95L-26.818 98.182L-30 110L-33.182 98.182L-45 95L-33.182 91.818L-30 80Z" fill="#E3F0FF"/>
<path d="M-30 80L-26.818 91.818L-15 95L-26.818 98.182L-30 110L-33.182 98.182L-45 95L-33.182 91.818L-30 80Z" fill="#E3F0FF"/>
<path d="M13.182 91.818L10 80L6.81802 91.818L-5 95L6.81802 98.182L10 110L13.182 98.182L25 95L13.182 91.818Z" fill="#E3F0FF"/>
<path d="M13.182 91.818L10 80L6.81802 91.818L-5 95L6.81802 98.182L10 110L13.182 98.182L25 95L13.182 91.818Z" fill="#E3F0FF"/>
<path d="M50 80L53.182 91.818L65 95L53.182 98.182L50 110L46.818 98.182L35 95L46.818 91.818L50 80Z" fill="#E3F0FF"/>
<path d="M50 80L53.182 91.818L65 95L53.182 98.182L50 110L46.818 98.182L35 95L46.818 91.818L50 80Z" fill="#E3F0FF"/>
<path d="M93.182 91.818L90 80L86.818 91.818L75 95L86.818 98.182L90 110L93.182 98.182L105 95L93.182 91.818Z" fill="#E3F0FF"/>
<path d="M93.182 91.818L90 80L86.818 91.818L75 95L86.818 98.182L90 110L93.182 98.182L105 95L93.182 91.818Z" fill="#E3F0FF"/>
<path d="M130 80L133.182 91.818L145 95L133.182 98.182L130 110L126.818 98.182L115 95L126.818 91.818L130 80Z" fill="#E3F0FF"/>
<path d="M130 80L133.182 91.818L145 95L133.182 98.182L130 110L126.818 98.182L115 95L126.818 91.818L130 80Z" fill="#E3F0FF"/>
<path d="M173.182 91.818L170 80L166.818 91.818L155 95L166.818 98.182L170 110L173.182 98.182L185 95L173.182 91.818Z" fill="#E3F0FF"/>
<path d="M173.182 91.818L170 80L166.818 91.818L155 95L166.818 98.182L170 110L173.182 98.182L185 95L173.182 91.818Z" fill="#E3F0FF"/>
<path d="M210 80L213.182 91.818L225 95L213.182 98.182L210 110L206.818 98.182L195 95L206.818 91.818L210 80Z" fill="#E3F0FF"/>
<path d="M210 80L213.182 91.818L225 95L213.182 98.182L210 110L206.818 98.182L195 95L206.818 91.818L210 80Z" fill="#E3F0FF"/>
<path d="M253.182 91.818L250 80L246.818 91.818L235 95L246.818 98.182L250 110L253.182 98.182L265 95L253.182 91.818Z" fill="#E3F0FF"/>
<path d="M253.182 91.818L250 80L246.818 91.818L235 95L246.818 98.182L250 110L253.182 98.182L265 95L253.182 91.818Z" fill="#E3F0FF"/>
<path d="M-30 120L-26.818 131.818L-15 135L-26.818 138.182L-30 150L-33.182 138.182L-45 135L-33.182 131.818L-30 120Z" fill="#E3F0FF"/>
<path d="M-30 120L-26.818 131.818L-15 135L-26.818 138.182L-30 150L-33.182 138.182L-45 135L-33.182 131.818L-30 120Z" fill="#E3F0FF"/>
<path d="M13.182 131.818L10 120L6.81802 131.818L-5 135L6.81802 138.182L10 150L13.182 138.182L25 135L13.182 131.818Z" fill="#E3F0FF"/>
<path d="M13.182 131.818L10 120L6.81802 131.818L-5 135L6.81802 138.182L10 150L13.182 138.182L25 135L13.182 131.818Z" fill="#E3F0FF"/>
<path d="M50 120L53.182 131.818L65 135L53.182 138.182L50 150L46.818 138.182L35 135L46.818 131.818L50 120Z" fill="#E3F0FF"/>
<path d="M50 120L53.182 131.818L65 135L53.182 138.182L50 150L46.818 138.182L35 135L46.818 131.818L50 120Z" fill="#E3F0FF"/>
<path d="M93.182 131.818L90 120L86.818 131.818L75 135L86.818 138.182L90 150L93.182 138.182L105 135L93.182 131.818Z" fill="#E3F0FF"/>
<path d="M93.182 131.818L90 120L86.818 131.818L75 135L86.818 138.182L90 150L93.182 138.182L105 135L93.182 131.818Z" fill="#E3F0FF"/>
<path d="M130 120L133.182 131.818L145 135L133.182 138.182L130 150L126.818 138.182L115 135L126.818 131.818L130 120Z" fill="#E3F0FF"/>
<path d="M130 120L133.182 131.818L145 135L133.182 138.182L130 150L126.818 138.182L115 135L126.818 131.818L130 120Z" fill="#E3F0FF"/>
<path d="M173.182 131.818L170 120L166.818 131.818L155 135L166.818 138.182L170 150L173.182 138.182L185 135L173.182 131.818Z" fill="#E3F0FF"/>
<path d="M173.182 131.818L170 120L166.818 131.818L155 135L166.818 138.182L170 150L173.182 138.182L185 135L173.182 131.818Z" fill="#E3F0FF"/>
<path d="M210 120L213.182 131.818L225 135L213.182 138.182L210 150L206.818 138.182L195 135L206.818 131.818L210 120Z" fill="#E3F0FF"/>
<path d="M210 120L213.182 131.818L225 135L213.182 138.182L210 150L206.818 138.182L195 135L206.818 131.818L210 120Z" fill="#E3F0FF"/>
<path d="M253.182 131.818L250 120L246.818 131.818L235 135L246.818 138.182L250 150L253.182 138.182L265 135L253.182 131.818Z" fill="#E3F0FF"/>
<path d="M253.182 131.818L250 120L246.818 131.818L235 135L246.818 138.182L250 150L253.182 138.182L265 135L253.182 131.818Z" fill="#E3F0FF"/>
<path d="M-30 160L-26.818 171.818L-15 175L-26.818 178.182L-30 190L-33.182 178.182L-45 175L-33.182 171.818L-30 160Z" fill="#E3F0FF"/>
<path d="M-30 160L-26.818 171.818L-15 175L-26.818 178.182L-30 190L-33.182 178.182L-45 175L-33.182 171.818L-30 160Z" fill="#E3F0FF"/>
<path d="M13.182 171.818L10 160L6.81802 171.818L-5 175L6.81802 178.182L10 190L13.182 178.182L25 175L13.182 171.818Z" fill="#E3F0FF"/>
<path d="M13.182 171.818L10 160L6.81802 171.818L-5 175L6.81802 178.182L10 190L13.182 178.182L25 175L13.182 171.818Z" fill="#E3F0FF"/>
<path d="M50 160L53.182 171.818L65 175L53.182 178.182L50 190L46.818 178.182L35 175L46.818 171.818L50 160Z" fill="#E3F0FF"/>
<path d="M50 160L53.182 171.818L65 175L53.182 178.182L50 190L46.818 178.182L35 175L46.818 171.818L50 160Z" fill="#E3F0FF"/>
<path d="M93.182 171.818L90 160L86.818 171.818L75 175L86.818 178.182L90 190L93.182 178.182L105 175L93.182 171.818Z" fill="#E3F0FF"/>
<path d="M93.182 171.818L90 160L86.818 171.818L75 175L86.818 178.182L90 190L93.182 178.182L105 175L93.182 171.818Z" fill="#E3F0FF"/>
<path d="M130 160L133.182 171.818L145 175L133.182 178.182L130 190L126.818 178.182L115 175L126.818 171.818L130 160Z" fill="#E3F0FF"/>
<path d="M130 160L133.182 171.818L145 175L133.182 178.182L130 190L126.818 178.182L115 175L126.818 171.818L130 160Z" fill="#E3F0FF"/>
<path d="M173.182 171.818L170 160L166.818 171.818L155 175L166.818 178.182L170 190L173.182 178.182L185 175L173.182 171.818Z" fill="#E3F0FF"/>
<path d="M173.182 171.818L170 160L166.818 171.818L155 175L166.818 178.182L170 190L173.182 178.182L185 175L173.182 171.818Z" fill="#E3F0FF"/>
<path d="M210 160L213.182 171.818L225 175L213.182 178.182L210 190L206.818 178.182L195 175L206.818 171.818L210 160Z" fill="#E3F0FF"/>
<path d="M210 160L213.182 171.818L225 175L213.182 178.182L210 190L206.818 178.182L195 175L206.818 171.818L210 160Z" fill="#E3F0FF"/>
<path d="M253.182 171.818L250 160L246.818 171.818L235 175L246.818 178.182L250 190L253.182 178.182L265 175L253.182 171.818Z" fill="#E3F0FF"/>
<path d="M253.182 171.818L250 160L246.818 171.818L235 175L246.818 178.182L250 190L253.182 178.182L265 175L253.182 171.818Z" fill="#E3F0FF"/>
<path d="M-30 200L-26.818 211.818L-15 215L-26.818 218.182L-30 230L-33.182 218.182L-45 215L-33.182 211.818L-30 200Z" fill="#E3F0FF"/>
<path d="M-30 200L-26.818 211.818L-15 215L-26.818 218.182L-30 230L-33.182 218.182L-45 215L-33.182 211.818L-30 200Z" fill="#E3F0FF"/>
<path d="M13.182 211.818L10 200L6.81802 211.818L-5 215L6.81802 218.182L10 230L13.182 218.182L25 215L13.182 211.818Z" fill="#E3F0FF"/>
<path d="M13.182 211.818L10 200L6.81802 211.818L-5 215L6.81802 218.182L10 230L13.182 218.182L25 215L13.182 211.818Z" fill="#E3F0FF"/>
<path d="M50 200L53.182 211.818L65 215L53.182 218.182L50 230L46.818 218.182L35 215L46.818 211.818L50 200Z" fill="#E3F0FF"/>
<path d="M50 200L53.182 211.818L65 215L53.182 218.182L50 230L46.818 218.182L35 215L46.818 211.818L50 200Z" fill="#E3F0FF"/>
<path d="M93.182 211.818L90 200L86.818 211.818L75 215L86.818 218.182L90 230L93.182 218.182L105 215L93.182 211.818Z" fill="#E3F0FF"/>
<path d="M93.182 211.818L90 200L86.818 211.818L75 215L86.818 218.182L90 230L93.182 218.182L105 215L93.182 211.818Z" fill="#E3F0FF"/>
<path d="M130 200L133.182 211.818L145 215L133.182 218.182L130 230L126.818 218.182L115 215L126.818 211.818L130 200Z" fill="#E3F0FF"/>
<path d="M130 200L133.182 211.818L145 215L133.182 218.182L130 230L126.818 218.182L115 215L126.818 211.818L130 200Z" fill="#E3F0FF"/>
<path d="M173.182 211.818L170 200L166.818 211.818L155 215L166.818 218.182L170 230L173.182 218.182L185 215L173.182 211.818Z" fill="#E3F0FF"/>
<path d="M173.182 211.818L170 200L166.818 211.818L155 215L166.818 218.182L170 230L173.182 218.182L185 215L173.182 211.818Z" fill="#E3F0FF"/>
<path d="M210 200L213.182 211.818L225 215L213.182 218.182L210 230L206.818 218.182L195 215L206.818 211.818L210 200Z" fill="#E3F0FF"/>
<path d="M210 200L213.182 211.818L225 215L213.182 218.182L210 230L206.818 218.182L195 215L206.818 211.818L210 200Z" fill="#E3F0FF"/>
<path d="M253.182 211.818L250 200L246.818 211.818L235 215L246.818 218.182L250 230L253.182 218.182L265 215L253.182 211.818Z" fill="#E3F0FF"/>
<path d="M253.182 211.818L250 200L246.818 211.818L235 215L246.818 218.182L250 230L253.182 218.182L265 215L253.182 211.818Z" fill="#E3F0FF"/>
</svg>
